{"title":"Human Planet - S01E03 - Arctic-Life In The Deep Freeze","uid":15569399,"size":357799777,"categoryP":"video","categoryS":"tv_shows","magnet":"?xt=urn:btih:487adae41f0cf1a58049131e6b99055eeff5917f&amp;dn=Human+Planet+-+S01E03+-+Arctic-Life+In+The+Deep+Freeze&amp;tr=udp%3A%2F%2Ftracker.leechers-paradise.org%3A6969&amp;tr=udp%3A%2F%2Fzer0day.ch%3A1337&amp;tr=udp%3A%2F%2Fopen.demonii.com%3A1337&amp;tr=udp%3A%2F%2Ftracker.coppersurfer.tk%3A6969&amp;tr=udp%3A%2F%2Fexodus.desync.com%3A6969","seeders":7,"leechers":2,"uploader":"Bullrout","files":1,"time":1471238090,"description":"Human Planet - S01E03 - Arctic-Life In The Deep Freeze\r\n\r\nThis program is an awe-inspiring, jaw-dropping, heart-stopping series that marvels at mankind's incredible relationship with nature. This episode tells remarkable stories of people who make their homes in the Arctic.\r\n\r\nComplete name : Human Planet - S01E03 - Arctic-Life In The Deep Freeze-.mp4\r\nFormat : MPEG-4\r\nFormat profile : Base Media / Version 2\r\nCodec ID : mp42 (mp42/isom/avc1)\r\nFile size : 341 MiB\r\nDuration : 42mn 41s\r\nOverall bit rate mode : Variable\r\nOverall bit rate : 1 118 Kbps\r\n\r\nVideo\r\nID : 2\r\nFormat : AVC\r\nFormat/Info : Advanced Video Codec\r\nFormat profile :   \r\nFormat settings, CABAC : Yes\r\nFormat settings, ReFrames : 3 frames\r\nCodec ID : avc1\r\nCodec ID/Info : Advanced Video Coding\r\nDuration : 42mn 41s\r\nBit rate mode : Variable\r\nBit rate : 986 Kbps\r\nMaximum bit rate : 1 000 Kbps\r\nWidth : 720 pixels\r\nHeight : 404 pixels\r\nDisplay aspect ratio : 16:9\r\nOriginal display aspect ratio : 16:9\r\nFrame rate mode : Constant\r\nFrame rate : 25.000 fps\r\nStandard : PAL\r\nColor space : YUV\r\nChroma subsampling : 4:2:0\r\nBit depth : 8 bits\r\nScan type : Progressive\r\nBits/(Pixel*Frame) : 0.136\r\nStream size : 301 MiB (88%)\r\nWriting library : x264 core 112\r\nColor range : Limited\r\nColor primaries : BT.601 PAL\r\nTransfer characteristics : BT.470 System B, BT.470 System G\r\nMatrix coefficients : BT.601\r\n\r\nAudio\r\nID : 1\r\nFormat : AAC\r\nFormat/Info : Advanced Audio Codec\r\nFormat profile : LC\r\nCodec ID : 40\r\nDuration : 42mn 41s\r\nBit rate mode : Variable\r\nBit rate : 128 Kbps\r\nMaximum bit rate : 576 Kbps\r\nChannel(s) : 2 channels\r\nChannel positions : Front: L R\r\nSampling rate : 48.0 KHz\r\nFrame rate : 46.875 fps (1024 spf)\r\nCompression mode : Lossy\r\nStream size : 39.1 MiB (11%)","torrent":{"xt":"urn:btih:487adae41f0cf1a58049131e6b99055eeff5917f","amp;dn":"Human+Planet+-+S01E03+-+Arctic-Life+In+The+Deep+Freeze","amp;tr":["udp%3A%2F%2Ftracker.leechers-paradise.org%3A6969","udp%3A%2F%2Fzer0day.ch%3A1337","udp%3A%2F%2Fopen.demonii.com%3A1337","udp%3A%2F%2Ftracker.coppersurfer.tk%3A6969","udp%3A%2F%2Fexodus.desync.com%3A6969"],"infoHash":"487adae41f0cf1a58049131e6b99055eeff5917f","infoHashBuffer":{"type":"Buffer","data":[72,122,218,228,31,12,241,165,128,73,19,30,107,153,5,94,239,245,145,127]},"announce":[],"urlList":[]}}